<mxfile host="app.diagrams.net" modified="2022-02-22T14:50:35.871Z" agent="5.0 (Macintosh; Intel Mac OS X 10_15_7) AppleWebKit/537.36 (KHTML, like Gecko) Chrome/97.0.4692.99 Safari/537.36" etag="wfuYrnKylhdYL70mBzn1" version="16.6.2" type="github" pages="4">
  <diagram id="C5RBs43oDa-KdzZeNtuy" name="Page-1">
    <mxGraphModel dx="1426" dy="711" grid="1" gridSize="10" guides="1" tooltips="1" connect="1" arrows="1" fold="1" page="1" pageScale="1" pageWidth="827" pageHeight="1169" math="0" shadow="0">
      <root>
        <mxCell id="WIyWlLk6GJQsqaUBKTNV-0" />
        <mxCell id="WIyWlLk6GJQsqaUBKTNV-1" parent="WIyWlLk6GJQsqaUBKTNV-0" />
        <mxCell id="iDaQYpnZzZrvekp5LFZ6-12" value="" style="rounded=0;whiteSpace=wrap;html=1;" parent="WIyWlLk6GJQsqaUBKTNV-1" vertex="1">
          <mxGeometry x="10" y="160" width="1240" height="1430" as="geometry" />
        </mxCell>
        <mxCell id="iDaQYpnZzZrvekp5LFZ6-13" value="" style="rounded=0;whiteSpace=wrap;html=1;" parent="WIyWlLk6GJQsqaUBKTNV-1" vertex="1">
          <mxGeometry x="30" y="175" width="1150" height="380" as="geometry" />
        </mxCell>
        <mxCell id="iDaQYpnZzZrvekp5LFZ6-14" value="浏览器" style="text;html=1;strokeColor=none;fillColor=none;align=center;verticalAlign=middle;whiteSpace=wrap;rounded=0;" parent="WIyWlLk6GJQsqaUBKTNV-1" vertex="1">
          <mxGeometry x="30" y="110" width="60" height="30" as="geometry" />
        </mxCell>
        <mxCell id="iDaQYpnZzZrvekp5LFZ6-15" value="Browser 进程" style="text;html=1;strokeColor=none;fillColor=none;align=center;verticalAlign=middle;whiteSpace=wrap;rounded=0;" parent="WIyWlLk6GJQsqaUBKTNV-1" vertex="1">
          <mxGeometry x="50" y="200" width="90" height="20" as="geometry" />
        </mxCell>
        <mxCell id="iDaQYpnZzZrvekp5LFZ6-16" value="" style="rounded=0;whiteSpace=wrap;html=1;" parent="WIyWlLk6GJQsqaUBKTNV-1" vertex="1">
          <mxGeometry x="50" y="250" width="330" height="280" as="geometry" />
        </mxCell>
        <mxCell id="iDaQYpnZzZrvekp5LFZ6-17" value="Main/UI 线程" style="text;html=1;strokeColor=none;fillColor=none;align=center;verticalAlign=middle;whiteSpace=wrap;rounded=0;" parent="WIyWlLk6GJQsqaUBKTNV-1" vertex="1">
          <mxGeometry x="50" y="250" width="85" height="30" as="geometry" />
        </mxCell>
        <mxCell id="iDaQYpnZzZrvekp5LFZ6-18" value="" style="rounded=0;whiteSpace=wrap;html=1;" parent="WIyWlLk6GJQsqaUBKTNV-1" vertex="1">
          <mxGeometry x="400" y="250" width="600" height="280" as="geometry" />
        </mxCell>
        <mxCell id="iDaQYpnZzZrvekp5LFZ6-19" value="I/O 线程 （浏览器的导航，输入，按钮等操作）" style="text;html=1;strokeColor=none;fillColor=none;align=center;verticalAlign=middle;whiteSpace=wrap;rounded=0;" parent="WIyWlLk6GJQsqaUBKTNV-1" vertex="1">
          <mxGeometry x="400" y="250" width="290" height="30" as="geometry" />
        </mxCell>
        <mxCell id="XrmSzS0onSl16h3eU5Rh-1" value="" style="rounded=0;whiteSpace=wrap;html=1;" parent="WIyWlLk6GJQsqaUBKTNV-1" vertex="1">
          <mxGeometry x="20" y="770" width="340" height="310" as="geometry" />
        </mxCell>
        <mxCell id="XrmSzS0onSl16h3eU5Rh-2" value="Main&lt;br&gt;thread" style="rounded=0;whiteSpace=wrap;html=1;" parent="WIyWlLk6GJQsqaUBKTNV-1" vertex="1">
          <mxGeometry x="40" y="805" width="90" height="250" as="geometry" />
        </mxCell>
        <mxCell id="XrmSzS0onSl16h3eU5Rh-3" value="Worker thread" style="rounded=0;whiteSpace=wrap;html=1;" parent="WIyWlLk6GJQsqaUBKTNV-1" vertex="1">
          <mxGeometry x="202" y="825" width="130" height="30" as="geometry" />
        </mxCell>
        <mxCell id="XrmSzS0onSl16h3eU5Rh-4" value="Worker thread" style="rounded=0;whiteSpace=wrap;html=1;" parent="WIyWlLk6GJQsqaUBKTNV-1" vertex="1">
          <mxGeometry x="202" y="875" width="130" height="30" as="geometry" />
        </mxCell>
        <mxCell id="XrmSzS0onSl16h3eU5Rh-5" value="Worker thread" style="rounded=0;whiteSpace=wrap;html=1;" parent="WIyWlLk6GJQsqaUBKTNV-1" vertex="1">
          <mxGeometry x="202" y="925" width="130" height="30" as="geometry" />
        </mxCell>
        <mxCell id="XrmSzS0onSl16h3eU5Rh-6" value="Worker thread" style="rounded=0;whiteSpace=wrap;html=1;" parent="WIyWlLk6GJQsqaUBKTNV-1" vertex="1">
          <mxGeometry x="202" y="975" width="130" height="30" as="geometry" />
        </mxCell>
        <mxCell id="XrmSzS0onSl16h3eU5Rh-7" value="......" style="text;html=1;strokeColor=none;fillColor=none;align=center;verticalAlign=middle;whiteSpace=wrap;rounded=0;" parent="WIyWlLk6GJQsqaUBKTNV-1" vertex="1">
          <mxGeometry x="237" y="1025" width="60" height="30" as="geometry" />
        </mxCell>
        <mxCell id="XrmSzS0onSl16h3eU5Rh-8" value="PostTask" style="text;html=1;strokeColor=none;fillColor=none;align=center;verticalAlign=middle;whiteSpace=wrap;rounded=0;" parent="WIyWlLk6GJQsqaUBKTNV-1" vertex="1">
          <mxGeometry x="140" y="885" width="60" height="30" as="geometry" />
        </mxCell>
        <mxCell id="XrmSzS0onSl16h3eU5Rh-9" value="沙箱渲染进程" style="text;html=1;strokeColor=none;fillColor=none;align=center;verticalAlign=middle;whiteSpace=wrap;rounded=0;" parent="WIyWlLk6GJQsqaUBKTNV-1" vertex="1">
          <mxGeometry x="20" y="770" width="105" height="30" as="geometry" />
        </mxCell>
        <mxCell id="XrmSzS0onSl16h3eU5Rh-10" value="" style="rounded=0;whiteSpace=wrap;html=1;" parent="WIyWlLk6GJQsqaUBKTNV-1" vertex="1">
          <mxGeometry x="380" y="770" width="340" height="310" as="geometry" />
        </mxCell>
        <mxCell id="XrmSzS0onSl16h3eU5Rh-11" value="Main&lt;br&gt;thread" style="rounded=0;whiteSpace=wrap;html=1;" parent="WIyWlLk6GJQsqaUBKTNV-1" vertex="1">
          <mxGeometry x="400" y="805" width="90" height="250" as="geometry" />
        </mxCell>
        <mxCell id="XrmSzS0onSl16h3eU5Rh-12" value="Worker thread" style="rounded=0;whiteSpace=wrap;html=1;" parent="WIyWlLk6GJQsqaUBKTNV-1" vertex="1">
          <mxGeometry x="562" y="825" width="130" height="30" as="geometry" />
        </mxCell>
        <mxCell id="XrmSzS0onSl16h3eU5Rh-13" value="Worker thread" style="rounded=0;whiteSpace=wrap;html=1;" parent="WIyWlLk6GJQsqaUBKTNV-1" vertex="1">
          <mxGeometry x="562" y="875" width="130" height="30" as="geometry" />
        </mxCell>
        <mxCell id="XrmSzS0onSl16h3eU5Rh-14" value="Worker thread" style="rounded=0;whiteSpace=wrap;html=1;" parent="WIyWlLk6GJQsqaUBKTNV-1" vertex="1">
          <mxGeometry x="562" y="925" width="130" height="30" as="geometry" />
        </mxCell>
        <mxCell id="XrmSzS0onSl16h3eU5Rh-15" value="Worker thread" style="rounded=0;whiteSpace=wrap;html=1;" parent="WIyWlLk6GJQsqaUBKTNV-1" vertex="1">
          <mxGeometry x="562" y="975" width="130" height="30" as="geometry" />
        </mxCell>
        <mxCell id="XrmSzS0onSl16h3eU5Rh-16" value="......" style="text;html=1;strokeColor=none;fillColor=none;align=center;verticalAlign=middle;whiteSpace=wrap;rounded=0;" parent="WIyWlLk6GJQsqaUBKTNV-1" vertex="1">
          <mxGeometry x="597" y="1025" width="60" height="30" as="geometry" />
        </mxCell>
        <mxCell id="XrmSzS0onSl16h3eU5Rh-17" value="PostTask" style="text;html=1;strokeColor=none;fillColor=none;align=center;verticalAlign=middle;whiteSpace=wrap;rounded=0;" parent="WIyWlLk6GJQsqaUBKTNV-1" vertex="1">
          <mxGeometry x="500" y="885" width="60" height="30" as="geometry" />
        </mxCell>
        <mxCell id="XrmSzS0onSl16h3eU5Rh-18" value="沙箱渲染进程" style="text;html=1;strokeColor=none;fillColor=none;align=center;verticalAlign=middle;whiteSpace=wrap;rounded=0;" parent="WIyWlLk6GJQsqaUBKTNV-1" vertex="1">
          <mxGeometry x="380" y="770" width="105" height="30" as="geometry" />
        </mxCell>
        <mxCell id="XrmSzS0onSl16h3eU5Rh-19" value="" style="rounded=0;whiteSpace=wrap;html=1;" parent="WIyWlLk6GJQsqaUBKTNV-1" vertex="1">
          <mxGeometry x="740" y="770" width="340" height="310" as="geometry" />
        </mxCell>
        <mxCell id="XrmSzS0onSl16h3eU5Rh-20" value="Main&lt;br&gt;thread" style="rounded=0;whiteSpace=wrap;html=1;" parent="WIyWlLk6GJQsqaUBKTNV-1" vertex="1">
          <mxGeometry x="760" y="805" width="90" height="250" as="geometry" />
        </mxCell>
        <mxCell id="XrmSzS0onSl16h3eU5Rh-21" value="Worker thread" style="rounded=0;whiteSpace=wrap;html=1;" parent="WIyWlLk6GJQsqaUBKTNV-1" vertex="1">
          <mxGeometry x="922" y="825" width="130" height="30" as="geometry" />
        </mxCell>
        <mxCell id="XrmSzS0onSl16h3eU5Rh-22" value="Worker thread" style="rounded=0;whiteSpace=wrap;html=1;" parent="WIyWlLk6GJQsqaUBKTNV-1" vertex="1">
          <mxGeometry x="922" y="875" width="130" height="30" as="geometry" />
        </mxCell>
        <mxCell id="XrmSzS0onSl16h3eU5Rh-23" value="Worker thread" style="rounded=0;whiteSpace=wrap;html=1;" parent="WIyWlLk6GJQsqaUBKTNV-1" vertex="1">
          <mxGeometry x="922" y="925" width="130" height="30" as="geometry" />
        </mxCell>
        <mxCell id="XrmSzS0onSl16h3eU5Rh-24" value="Worker thread" style="rounded=0;whiteSpace=wrap;html=1;" parent="WIyWlLk6GJQsqaUBKTNV-1" vertex="1">
          <mxGeometry x="922" y="975" width="130" height="30" as="geometry" />
        </mxCell>
        <mxCell id="XrmSzS0onSl16h3eU5Rh-25" value="......" style="text;html=1;strokeColor=none;fillColor=none;align=center;verticalAlign=middle;whiteSpace=wrap;rounded=0;" parent="WIyWlLk6GJQsqaUBKTNV-1" vertex="1">
          <mxGeometry x="957" y="1025" width="60" height="30" as="geometry" />
        </mxCell>
        <mxCell id="XrmSzS0onSl16h3eU5Rh-26" value="PostTask" style="text;html=1;strokeColor=none;fillColor=none;align=center;verticalAlign=middle;whiteSpace=wrap;rounded=0;" parent="WIyWlLk6GJQsqaUBKTNV-1" vertex="1">
          <mxGeometry x="860" y="885" width="60" height="30" as="geometry" />
        </mxCell>
        <mxCell id="XrmSzS0onSl16h3eU5Rh-27" value="沙箱渲染进程" style="text;html=1;strokeColor=none;fillColor=none;align=center;verticalAlign=middle;whiteSpace=wrap;rounded=0;" parent="WIyWlLk6GJQsqaUBKTNV-1" vertex="1">
          <mxGeometry x="740" y="770" width="105" height="30" as="geometry" />
        </mxCell>
        <mxCell id="XrmSzS0onSl16h3eU5Rh-30" value="" style="endArrow=classic;html=1;rounded=0;exitX=0.5;exitY=1;exitDx=0;exitDy=0;entryX=0.597;entryY=0;entryDx=0;entryDy=0;entryPerimeter=0;" parent="WIyWlLk6GJQsqaUBKTNV-1" source="XrmSzS0onSl16h3eU5Rh-32" target="XrmSzS0onSl16h3eU5Rh-1" edge="1">
          <mxGeometry width="50" height="50" relative="1" as="geometry">
            <mxPoint x="250" y="620" as="sourcePoint" />
            <mxPoint x="300" y="570" as="targetPoint" />
          </mxGeometry>
        </mxCell>
        <mxCell id="XrmSzS0onSl16h3eU5Rh-31" value="IPC 通信" style="text;html=1;strokeColor=none;fillColor=none;align=center;verticalAlign=middle;whiteSpace=wrap;rounded=0;" parent="WIyWlLk6GJQsqaUBKTNV-1" vertex="1">
          <mxGeometry x="237" y="635" width="60" height="30" as="geometry" />
        </mxCell>
        <mxCell id="XrmSzS0onSl16h3eU5Rh-32" value="&lt;strong class=&quot;hq fz&quot; style=&quot;font-style: normal ; text-align: center ; text-indent: 0px ; text-transform: none ; word-spacing: 0px ; box-sizing: inherit ; font-weight: 700 ; font-family: &amp;#34;charter&amp;#34; , &amp;#34;georgia&amp;#34; , &amp;#34;cambria&amp;#34; , &amp;#34;times new roman&amp;#34; , &amp;#34;times&amp;#34; , serif ; color: rgb(41 , 41 , 41) ; font-size: 21px ; letter-spacing: -0.063px ; background-color: rgb(255 , 255 , 255)&quot;&gt;&lt;font style=&quot;box-sizing: inherit ; vertical-align: inherit&quot;&gt;&lt;font style=&quot;box-sizing: inherit ; vertical-align: inherit&quot;&gt;Channel管道&lt;/font&gt;&lt;/font&gt;&lt;/strong&gt;" style="text;html=1;strokeColor=none;fillColor=none;align=center;verticalAlign=middle;whiteSpace=wrap;rounded=0;" parent="WIyWlLk6GJQsqaUBKTNV-1" vertex="1">
          <mxGeometry x="430" y="475" width="130" height="30" as="geometry" />
        </mxCell>
        <mxCell id="XrmSzS0onSl16h3eU5Rh-40" style="edgeStyle=none;rounded=0;orthogonalLoop=1;jettySize=auto;html=1;exitX=0.5;exitY=1;exitDx=0;exitDy=0;entryX=0.467;entryY=0.643;entryDx=0;entryDy=0;entryPerimeter=0;" parent="WIyWlLk6GJQsqaUBKTNV-1" source="XrmSzS0onSl16h3eU5Rh-33" target="iDaQYpnZzZrvekp5LFZ6-18" edge="1">
          <mxGeometry relative="1" as="geometry" />
        </mxCell>
        <mxCell id="XrmSzS0onSl16h3eU5Rh-33" value="&lt;meta charset=&quot;utf-8&quot;&gt;&lt;strong class=&quot;hq fz&quot; style=&quot;box-sizing: inherit; font-weight: 700; font-family: charter, georgia, cambria, &amp;quot;times new roman&amp;quot;, times, serif; color: rgb(41, 41, 41); font-size: 21px; font-style: normal; letter-spacing: -0.063px; text-indent: 0px; text-transform: none; word-spacing: 0px; background-color: rgb(255, 255, 255);&quot;&gt;&lt;font style=&quot;box-sizing: inherit ; vertical-align: inherit&quot;&gt;&lt;font style=&quot;box-sizing: inherit ; vertical-align: inherit&quot;&gt;ResourceDispatcherHost&lt;/font&gt;&lt;/font&gt;&lt;/strong&gt;" style="text;html=1;strokeColor=none;fillColor=none;align=center;verticalAlign=middle;whiteSpace=wrap;rounded=0;" parent="WIyWlLk6GJQsqaUBKTNV-1" vertex="1">
          <mxGeometry x="650" y="310" width="60" height="30" as="geometry" />
        </mxCell>
        <mxCell id="XrmSzS0onSl16h3eU5Rh-37" style="rounded=0;orthogonalLoop=1;jettySize=auto;html=1;exitX=0.5;exitY=1;exitDx=0;exitDy=0;entryX=0.75;entryY=0;entryDx=0;entryDy=0;" parent="WIyWlLk6GJQsqaUBKTNV-1" source="XrmSzS0onSl16h3eU5Rh-34" target="XrmSzS0onSl16h3eU5Rh-19" edge="1">
          <mxGeometry relative="1" as="geometry" />
        </mxCell>
        <mxCell id="XrmSzS0onSl16h3eU5Rh-34" value="&lt;strong class=&quot;hq fz&quot; style=&quot;font-style: normal ; text-align: center ; text-indent: 0px ; text-transform: none ; word-spacing: 0px ; box-sizing: inherit ; font-weight: 700 ; font-family: &amp;#34;charter&amp;#34; , &amp;#34;georgia&amp;#34; , &amp;#34;cambria&amp;#34; , &amp;#34;times new roman&amp;#34; , &amp;#34;times&amp;#34; , serif ; color: rgb(41 , 41 , 41) ; font-size: 21px ; letter-spacing: -0.063px ; background-color: rgb(255 , 255 , 255)&quot;&gt;&lt;font style=&quot;box-sizing: inherit ; vertical-align: inherit&quot;&gt;&lt;font style=&quot;box-sizing: inherit ; vertical-align: inherit&quot;&gt;Channel管道&lt;/font&gt;&lt;/font&gt;&lt;/strong&gt;" style="text;html=1;strokeColor=none;fillColor=none;align=center;verticalAlign=middle;whiteSpace=wrap;rounded=0;" parent="WIyWlLk6GJQsqaUBKTNV-1" vertex="1">
          <mxGeometry x="740" y="475" width="130" height="30" as="geometry" />
        </mxCell>
        <mxCell id="XrmSzS0onSl16h3eU5Rh-36" style="rounded=0;orthogonalLoop=1;jettySize=auto;html=1;exitX=0.5;exitY=1;exitDx=0;exitDy=0;entryX=0.5;entryY=0;entryDx=0;entryDy=0;" parent="WIyWlLk6GJQsqaUBKTNV-1" source="XrmSzS0onSl16h3eU5Rh-35" target="XrmSzS0onSl16h3eU5Rh-10" edge="1">
          <mxGeometry relative="1" as="geometry" />
        </mxCell>
        <mxCell id="XrmSzS0onSl16h3eU5Rh-35" value="&lt;strong class=&quot;hq fz&quot; style=&quot;font-style: normal ; text-align: center ; text-indent: 0px ; text-transform: none ; word-spacing: 0px ; box-sizing: inherit ; font-weight: 700 ; font-family: &amp;#34;charter&amp;#34; , &amp;#34;georgia&amp;#34; , &amp;#34;cambria&amp;#34; , &amp;#34;times new roman&amp;#34; , &amp;#34;times&amp;#34; , serif ; color: rgb(41 , 41 , 41) ; font-size: 21px ; letter-spacing: -0.063px ; background-color: rgb(255 , 255 , 255)&quot;&gt;&lt;font style=&quot;box-sizing: inherit ; vertical-align: inherit&quot;&gt;&lt;font style=&quot;box-sizing: inherit ; vertical-align: inherit&quot;&gt;Channel管道&lt;/font&gt;&lt;/font&gt;&lt;/strong&gt;" style="text;html=1;strokeColor=none;fillColor=none;align=center;verticalAlign=middle;whiteSpace=wrap;rounded=0;" parent="WIyWlLk6GJQsqaUBKTNV-1" vertex="1">
          <mxGeometry x="590" y="475" width="130" height="30" as="geometry" />
        </mxCell>
        <mxCell id="XrmSzS0onSl16h3eU5Rh-41" value="每个线程都有自己的对象，每个进程都有自己的主线程和UI线程" style="text;html=1;strokeColor=none;fillColor=none;align=center;verticalAlign=middle;whiteSpace=wrap;rounded=0;" parent="WIyWlLk6GJQsqaUBKTNV-1" vertex="1">
          <mxGeometry x="30" y="20" width="710" height="30" as="geometry" />
        </mxCell>
        <mxCell id="XrmSzS0onSl16h3eU5Rh-44" style="edgeStyle=none;rounded=0;orthogonalLoop=1;jettySize=auto;html=1;" parent="WIyWlLk6GJQsqaUBKTNV-1" source="XrmSzS0onSl16h3eU5Rh-43" target="XrmSzS0onSl16h3eU5Rh-32" edge="1">
          <mxGeometry relative="1" as="geometry" />
        </mxCell>
        <mxCell id="XrmSzS0onSl16h3eU5Rh-43" value="接收用户在浏览器界面中的操作，" style="text;html=1;strokeColor=none;fillColor=none;align=center;verticalAlign=middle;whiteSpace=wrap;rounded=0;" parent="WIyWlLk6GJQsqaUBKTNV-1" vertex="1">
          <mxGeometry x="90" y="330" width="190" height="30" as="geometry" />
        </mxCell>
        <mxCell id="XrmSzS0onSl16h3eU5Rh-45" value="插件进程" style="rounded=0;whiteSpace=wrap;html=1;" parent="WIyWlLk6GJQsqaUBKTNV-1" vertex="1">
          <mxGeometry x="25" y="1109" width="215" height="211" as="geometry" />
        </mxCell>
        <mxCell id="XrmSzS0onSl16h3eU5Rh-46" value="GPU进程" style="rounded=0;whiteSpace=wrap;html=1;" parent="WIyWlLk6GJQsqaUBKTNV-1" vertex="1">
          <mxGeometry x="260" y="1109" width="215" height="211" as="geometry" />
        </mxCell>
        <mxCell id="XrmSzS0onSl16h3eU5Rh-47" value="网络的请求" style="text;html=1;strokeColor=none;fillColor=none;align=center;verticalAlign=middle;whiteSpace=wrap;rounded=0;" parent="WIyWlLk6GJQsqaUBKTNV-1" vertex="1">
          <mxGeometry x="460" y="310" width="80" height="30" as="geometry" />
        </mxCell>
      </root>
    </mxGraphModel>
  </diagram>
  <diagram id="HKb51zCs69CQTgwfbYZs" name="render process">
    <mxGraphModel dx="946" dy="510" grid="1" gridSize="10" guides="1" tooltips="1" connect="1" arrows="1" fold="1" page="1" pageScale="1" pageWidth="827" pageHeight="1169" math="0" shadow="0">
      <root>
        <mxCell id="89i6XWNFoZizcu6RGG9E-0" />
        <mxCell id="89i6XWNFoZizcu6RGG9E-1" parent="89i6XWNFoZizcu6RGG9E-0" />
        <mxCell id="89i6XWNFoZizcu6RGG9E-2" value="" style="rounded=0;whiteSpace=wrap;html=1;" parent="89i6XWNFoZizcu6RGG9E-1" vertex="1">
          <mxGeometry x="150" y="800" width="460" height="290" as="geometry" />
        </mxCell>
        <mxCell id="7qHdefGm9lMwMHd9xBgf-0" value="渲染进程" style="text;html=1;strokeColor=none;fillColor=none;align=center;verticalAlign=middle;whiteSpace=wrap;rounded=0;" parent="89i6XWNFoZizcu6RGG9E-1" vertex="1">
          <mxGeometry x="170" y="750" width="60" height="30" as="geometry" />
        </mxCell>
      </root>
    </mxGraphModel>
  </diagram>
  <diagram id="X1DfzlSie18772fEyc7x" name="Page-3">
    <mxGraphModel dx="1426" dy="711" grid="1" gridSize="10" guides="1" tooltips="1" connect="1" arrows="1" fold="1" page="1" pageScale="1" pageWidth="827" pageHeight="1169" math="0" shadow="0">
      <root>
        <mxCell id="RcyHzOWN4FoD-A4zVmVD-0" />
        <mxCell id="RcyHzOWN4FoD-A4zVmVD-1" parent="RcyHzOWN4FoD-A4zVmVD-0" />
        <mxCell id="RcyHzOWN4FoD-A4zVmVD-2" value="" style="rounded=0;whiteSpace=wrap;html=1;" parent="RcyHzOWN4FoD-A4zVmVD-1" vertex="1">
          <mxGeometry x="110" y="140" width="400" height="230" as="geometry" />
        </mxCell>
        <mxCell id="RcyHzOWN4FoD-A4zVmVD-3" value="event loop" style="text;html=1;strokeColor=none;fillColor=none;align=center;verticalAlign=middle;whiteSpace=wrap;rounded=0;" parent="RcyHzOWN4FoD-A4zVmVD-1" vertex="1">
          <mxGeometry x="110" y="110" width="60" height="30" as="geometry" />
        </mxCell>
        <mxCell id="RcyHzOWN4FoD-A4zVmVD-5" value="" style="rounded=0;whiteSpace=wrap;html=1;" parent="RcyHzOWN4FoD-A4zVmVD-1" vertex="1">
          <mxGeometry x="140" y="180" width="120" height="160" as="geometry" />
        </mxCell>
        <mxCell id="RcyHzOWN4FoD-A4zVmVD-6" value="task set（任务集合）" style="text;html=1;strokeColor=none;fillColor=none;align=center;verticalAlign=middle;whiteSpace=wrap;rounded=0;" parent="RcyHzOWN4FoD-A4zVmVD-1" vertex="1">
          <mxGeometry x="140" y="180" width="120" height="30" as="geometry" />
        </mxCell>
        <mxCell id="RcyHzOWN4FoD-A4zVmVD-7" value="" style="rounded=0;whiteSpace=wrap;html=1;" parent="RcyHzOWN4FoD-A4zVmVD-1" vertex="1">
          <mxGeometry x="280" y="180" width="120" height="160" as="geometry" />
        </mxCell>
        <mxCell id="RcyHzOWN4FoD-A4zVmVD-8" value="task set（任务集合）" style="text;html=1;strokeColor=none;fillColor=none;align=center;verticalAlign=middle;whiteSpace=wrap;rounded=0;" parent="RcyHzOWN4FoD-A4zVmVD-1" vertex="1">
          <mxGeometry x="280" y="180" width="120" height="30" as="geometry" />
        </mxCell>
        <mxCell id="RcyHzOWN4FoD-A4zVmVD-9" value="......" style="text;html=1;strokeColor=none;fillColor=none;align=center;verticalAlign=middle;whiteSpace=wrap;rounded=0;" parent="RcyHzOWN4FoD-A4zVmVD-1" vertex="1">
          <mxGeometry x="420" y="240" width="60" height="30" as="geometry" />
        </mxCell>
        <mxCell id="RcyHzOWN4FoD-A4zVmVD-10" value="&lt;p style=&quot;line-height: 1.9&quot;&gt;一个事件循环有一个或者多个任务集合（任务队列），这里的任务队列其实是任务集合，让浏览器去选择每一次从任务队列中取出任务进行运行&lt;/p&gt;" style="text;html=1;strokeColor=none;fillColor=none;align=left;verticalAlign=middle;whiteSpace=wrap;rounded=0;" parent="RcyHzOWN4FoD-A4zVmVD-1" vertex="1">
          <mxGeometry x="90" y="10" width="390" height="90" as="geometry" />
        </mxCell>
      </root>
    </mxGraphModel>
  </diagram>
  <diagram id="Da0PKeCNRsvWB5ln_-vF" name="Page-4">
    <mxGraphModel dx="2787" dy="944" grid="1" gridSize="10" guides="1" tooltips="1" connect="1" arrows="1" fold="1" page="1" pageScale="1" pageWidth="827" pageHeight="1169" math="0" shadow="0">
      <root>
        <mxCell id="5wnC8F022_fqOr7j5bCu-0" />
        <mxCell id="5wnC8F022_fqOr7j5bCu-1" parent="5wnC8F022_fqOr7j5bCu-0" />
        <mxCell id="5wnC8F022_fqOr7j5bCu-3" value="-2" style="rounded=0;orthogonalLoop=1;jettySize=auto;html=1;exitX=0;exitY=1;exitDx=0;exitDy=0;entryX=0.5;entryY=0;entryDx=0;entryDy=0;" edge="1" parent="5wnC8F022_fqOr7j5bCu-1" source="5wnC8F022_fqOr7j5bCu-2" target="5wnC8F022_fqOr7j5bCu-65">
          <mxGeometry relative="1" as="geometry">
            <mxPoint x="170" y="220" as="targetPoint" />
          </mxGeometry>
        </mxCell>
        <mxCell id="5wnC8F022_fqOr7j5bCu-2" value="8" style="ellipse;whiteSpace=wrap;html=1;" vertex="1" parent="5wnC8F022_fqOr7j5bCu-1">
          <mxGeometry x="414" y="110" width="50" height="50" as="geometry" />
        </mxCell>
        <mxCell id="5wnC8F022_fqOr7j5bCu-4" value="-3" style="rounded=0;orthogonalLoop=1;jettySize=auto;html=1;exitX=0.5;exitY=1;exitDx=0;exitDy=0;entryX=0.5;entryY=0;entryDx=0;entryDy=0;" edge="1" parent="5wnC8F022_fqOr7j5bCu-1" source="5wnC8F022_fqOr7j5bCu-2" target="5wnC8F022_fqOr7j5bCu-9">
          <mxGeometry relative="1" as="geometry">
            <mxPoint x="438.14" y="231.72" as="targetPoint" />
            <mxPoint x="439.85572875253786" y="180.00427124746213" as="sourcePoint" />
          </mxGeometry>
        </mxCell>
        <mxCell id="5wnC8F022_fqOr7j5bCu-5" value="-5" style="rounded=0;orthogonalLoop=1;jettySize=auto;html=1;exitX=1;exitY=1;exitDx=0;exitDy=0;entryX=0.5;entryY=0;entryDx=0;entryDy=0;" edge="1" parent="5wnC8F022_fqOr7j5bCu-1" source="5wnC8F022_fqOr7j5bCu-2" target="5wnC8F022_fqOr7j5bCu-51">
          <mxGeometry relative="1" as="geometry">
            <mxPoint x="715" y="240" as="targetPoint" />
            <mxPoint x="529.9957287525378" y="170.00427124746216" as="sourcePoint" />
          </mxGeometry>
        </mxCell>
        <mxCell id="5wnC8F022_fqOr7j5bCu-9" value="5" style="ellipse;whiteSpace=wrap;html=1;" vertex="1" parent="5wnC8F022_fqOr7j5bCu-1">
          <mxGeometry x="364" y="250" width="50" height="50" as="geometry" />
        </mxCell>
        <mxCell id="5wnC8F022_fqOr7j5bCu-27" value="-3" style="rounded=0;orthogonalLoop=1;jettySize=auto;html=1;exitX=0.5;exitY=1;exitDx=0;exitDy=0;entryX=0.5;entryY=0;entryDx=0;entryDy=0;" edge="1" parent="5wnC8F022_fqOr7j5bCu-1" source="5wnC8F022_fqOr7j5bCu-9" target="5wnC8F022_fqOr7j5bCu-107">
          <mxGeometry relative="1" as="geometry">
            <mxPoint x="480" y="420" as="targetPoint" />
            <mxPoint x="464" y="330" as="sourcePoint" />
          </mxGeometry>
        </mxCell>
        <mxCell id="5wnC8F022_fqOr7j5bCu-28" value="-5" style="rounded=0;orthogonalLoop=1;jettySize=auto;html=1;exitX=1;exitY=1;exitDx=0;exitDy=0;entryX=0.5;entryY=0;entryDx=0;entryDy=0;" edge="1" parent="5wnC8F022_fqOr7j5bCu-1" source="5wnC8F022_fqOr7j5bCu-9" target="5wnC8F022_fqOr7j5bCu-29">
          <mxGeometry relative="1" as="geometry">
            <mxPoint x="570" y="360" as="targetPoint" />
            <mxPoint x="529.9976695296638" y="329.9976695296637" as="sourcePoint" />
          </mxGeometry>
        </mxCell>
        <mxCell id="5wnC8F022_fqOr7j5bCu-29" value="0" style="ellipse;whiteSpace=wrap;html=1;" vertex="1" parent="5wnC8F022_fqOr7j5bCu-1">
          <mxGeometry x="450" y="350" width="50" height="50" as="geometry" />
        </mxCell>
        <mxCell id="5wnC8F022_fqOr7j5bCu-30" value="-2" style="rounded=0;orthogonalLoop=1;jettySize=auto;html=1;exitX=0;exitY=1;exitDx=0;exitDy=0;entryX=0.5;entryY=0;entryDx=0;entryDy=0;" edge="1" parent="5wnC8F022_fqOr7j5bCu-1" source="5wnC8F022_fqOr7j5bCu-9" target="5wnC8F022_fqOr7j5bCu-44">
          <mxGeometry relative="1" as="geometry">
            <mxPoint x="370" y="360" as="targetPoint" />
            <mxPoint x="414.0023304703363" y="289.9976695296637" as="sourcePoint" />
          </mxGeometry>
        </mxCell>
        <mxCell id="5wnC8F022_fqOr7j5bCu-31" value="-4" style="ellipse;whiteSpace=wrap;html=1;" vertex="1" parent="5wnC8F022_fqOr7j5bCu-1">
          <mxGeometry x="-220" y="670" width="50" height="50" as="geometry" />
        </mxCell>
        <mxCell id="5wnC8F022_fqOr7j5bCu-32" value="-5" style="rounded=0;orthogonalLoop=1;jettySize=auto;html=1;entryX=0.5;entryY=0;entryDx=0;entryDy=0;exitX=1;exitY=1;exitDx=0;exitDy=0;" edge="1" parent="5wnC8F022_fqOr7j5bCu-1" source="5wnC8F022_fqOr7j5bCu-37" target="5wnC8F022_fqOr7j5bCu-31">
          <mxGeometry relative="1" as="geometry">
            <mxPoint x="152.31999999999994" y="763.66" as="targetPoint" />
            <mxPoint x="150" y="720" as="sourcePoint" />
          </mxGeometry>
        </mxCell>
        <mxCell id="5wnC8F022_fqOr7j5bCu-33" value="-2" style="ellipse;whiteSpace=wrap;html=1;" vertex="1" parent="5wnC8F022_fqOr7j5bCu-1">
          <mxGeometry x="-280" y="680" width="50" height="50" as="geometry" />
        </mxCell>
        <mxCell id="5wnC8F022_fqOr7j5bCu-34" value="-3" style="rounded=0;orthogonalLoop=1;jettySize=auto;html=1;entryX=0.5;entryY=0;entryDx=0;entryDy=0;exitX=0.5;exitY=1;exitDx=0;exitDy=0;" edge="1" parent="5wnC8F022_fqOr7j5bCu-1" source="5wnC8F022_fqOr7j5bCu-37" target="5wnC8F022_fqOr7j5bCu-33">
          <mxGeometry relative="1" as="geometry">
            <mxPoint x="65" y="750" as="targetPoint" />
            <mxPoint x="100" y="720" as="sourcePoint" />
          </mxGeometry>
        </mxCell>
        <mxCell id="5wnC8F022_fqOr7j5bCu-35" value="-1" style="ellipse;whiteSpace=wrap;html=1;" vertex="1" parent="5wnC8F022_fqOr7j5bCu-1">
          <mxGeometry x="-340" y="680" width="50" height="50" as="geometry" />
        </mxCell>
        <mxCell id="5wnC8F022_fqOr7j5bCu-36" value="-5" style="rounded=0;orthogonalLoop=1;jettySize=auto;html=1;entryX=0.5;entryY=0;entryDx=0;entryDy=0;exitX=0;exitY=1;exitDx=0;exitDy=0;" edge="1" parent="5wnC8F022_fqOr7j5bCu-1" target="5wnC8F022_fqOr7j5bCu-35" source="5wnC8F022_fqOr7j5bCu-37">
          <mxGeometry relative="1" as="geometry">
            <mxPoint x="12.319999999999936" y="763.66" as="targetPoint" />
            <mxPoint x="10" y="720" as="sourcePoint" />
          </mxGeometry>
        </mxCell>
        <mxCell id="5wnC8F022_fqOr7j5bCu-37" value="1" style="ellipse;whiteSpace=wrap;html=1;" vertex="1" parent="5wnC8F022_fqOr7j5bCu-1">
          <mxGeometry x="-330" y="515" width="50" height="50" as="geometry" />
        </mxCell>
        <mxCell id="5wnC8F022_fqOr7j5bCu-38" value="-2" style="ellipse;whiteSpace=wrap;html=1;" vertex="1" parent="5wnC8F022_fqOr7j5bCu-1">
          <mxGeometry x="240" y="500" width="50" height="50" as="geometry" />
        </mxCell>
        <mxCell id="5wnC8F022_fqOr7j5bCu-39" value="-5" style="rounded=0;orthogonalLoop=1;jettySize=auto;html=1;entryX=0.5;entryY=0;entryDx=0;entryDy=0;exitX=1;exitY=1;exitDx=0;exitDy=0;" edge="1" parent="5wnC8F022_fqOr7j5bCu-1" source="5wnC8F022_fqOr7j5bCu-44" target="5wnC8F022_fqOr7j5bCu-38">
          <mxGeometry relative="1" as="geometry">
            <mxPoint x="612.3199999999999" y="633.66" as="targetPoint" />
            <mxPoint x="610" y="590" as="sourcePoint" />
          </mxGeometry>
        </mxCell>
        <mxCell id="5wnC8F022_fqOr7j5bCu-40" value="0" style="ellipse;whiteSpace=wrap;html=1;" vertex="1" parent="5wnC8F022_fqOr7j5bCu-1">
          <mxGeometry x="180" y="500" width="50" height="50" as="geometry" />
        </mxCell>
        <mxCell id="5wnC8F022_fqOr7j5bCu-41" value="-3" style="rounded=0;orthogonalLoop=1;jettySize=auto;html=1;entryX=0.5;entryY=0;entryDx=0;entryDy=0;exitX=0.5;exitY=1;exitDx=0;exitDy=0;" edge="1" parent="5wnC8F022_fqOr7j5bCu-1" source="5wnC8F022_fqOr7j5bCu-44" target="5wnC8F022_fqOr7j5bCu-40">
          <mxGeometry relative="1" as="geometry">
            <mxPoint x="525" y="620" as="targetPoint" />
            <mxPoint x="560" y="590" as="sourcePoint" />
          </mxGeometry>
        </mxCell>
        <mxCell id="5wnC8F022_fqOr7j5bCu-43" value="-2" style="rounded=0;orthogonalLoop=1;jettySize=auto;html=1;entryX=0.5;entryY=0;entryDx=0;entryDy=0;exitX=0;exitY=1;exitDx=0;exitDy=0;" edge="1" parent="5wnC8F022_fqOr7j5bCu-1" source="5wnC8F022_fqOr7j5bCu-44" target="5wnC8F022_fqOr7j5bCu-114">
          <mxGeometry relative="1" as="geometry">
            <mxPoint x="505" y="650" as="targetPoint" />
            <mxPoint x="470" y="590" as="sourcePoint" />
          </mxGeometry>
        </mxCell>
        <mxCell id="5wnC8F022_fqOr7j5bCu-44" value="3" style="ellipse;whiteSpace=wrap;html=1;" vertex="1" parent="5wnC8F022_fqOr7j5bCu-1">
          <mxGeometry x="180" y="340" width="50" height="50" as="geometry" />
        </mxCell>
        <mxCell id="5wnC8F022_fqOr7j5bCu-45" value="-2" style="ellipse;whiteSpace=wrap;html=1;" vertex="1" parent="5wnC8F022_fqOr7j5bCu-1">
          <mxGeometry x="740" y="350" width="50" height="50" as="geometry" />
        </mxCell>
        <mxCell id="5wnC8F022_fqOr7j5bCu-46" value="-5" style="rounded=0;orthogonalLoop=1;jettySize=auto;html=1;entryX=0.5;entryY=0;entryDx=0;entryDy=0;exitX=1;exitY=1;exitDx=0;exitDy=0;" edge="1" parent="5wnC8F022_fqOr7j5bCu-1" source="5wnC8F022_fqOr7j5bCu-51" target="5wnC8F022_fqOr7j5bCu-45">
          <mxGeometry relative="1" as="geometry">
            <mxPoint x="862.3199999999999" y="383.65999999999997" as="targetPoint" />
            <mxPoint x="860" y="340" as="sourcePoint" />
          </mxGeometry>
        </mxCell>
        <mxCell id="5wnC8F022_fqOr7j5bCu-47" value="0" style="ellipse;whiteSpace=wrap;html=1;" vertex="1" parent="5wnC8F022_fqOr7j5bCu-1">
          <mxGeometry x="640" y="340" width="50" height="50" as="geometry" />
        </mxCell>
        <mxCell id="5wnC8F022_fqOr7j5bCu-48" value="-3" style="rounded=0;orthogonalLoop=1;jettySize=auto;html=1;entryX=0.5;entryY=0;entryDx=0;entryDy=0;exitX=0.5;exitY=1;exitDx=0;exitDy=0;" edge="1" parent="5wnC8F022_fqOr7j5bCu-1" source="5wnC8F022_fqOr7j5bCu-51" target="5wnC8F022_fqOr7j5bCu-47">
          <mxGeometry relative="1" as="geometry">
            <mxPoint x="775" y="370" as="targetPoint" />
            <mxPoint x="810" y="340" as="sourcePoint" />
          </mxGeometry>
        </mxCell>
        <mxCell id="5wnC8F022_fqOr7j5bCu-50" value="-2" style="rounded=0;orthogonalLoop=1;jettySize=auto;html=1;entryX=0.5;entryY=0;entryDx=0;entryDy=0;exitX=0;exitY=1;exitDx=0;exitDy=0;" edge="1" parent="5wnC8F022_fqOr7j5bCu-1" source="5wnC8F022_fqOr7j5bCu-51" target="5wnC8F022_fqOr7j5bCu-58">
          <mxGeometry relative="1" as="geometry">
            <mxPoint x="765" y="300" as="targetPoint" />
            <mxPoint x="720" y="340" as="sourcePoint" />
          </mxGeometry>
        </mxCell>
        <mxCell id="5wnC8F022_fqOr7j5bCu-51" value="3" style="ellipse;whiteSpace=wrap;html=1;" vertex="1" parent="5wnC8F022_fqOr7j5bCu-1">
          <mxGeometry x="630" y="250" width="50" height="50" as="geometry" />
        </mxCell>
        <mxCell id="5wnC8F022_fqOr7j5bCu-52" value="-4" style="ellipse;whiteSpace=wrap;html=1;" vertex="1" parent="5wnC8F022_fqOr7j5bCu-1">
          <mxGeometry x="680" y="510" width="50" height="50" as="geometry" />
        </mxCell>
        <mxCell id="5wnC8F022_fqOr7j5bCu-53" value="-5" style="rounded=0;orthogonalLoop=1;jettySize=auto;html=1;entryX=0.5;entryY=0;entryDx=0;entryDy=0;exitX=1;exitY=1;exitDx=0;exitDy=0;" edge="1" parent="5wnC8F022_fqOr7j5bCu-1" source="5wnC8F022_fqOr7j5bCu-58" target="5wnC8F022_fqOr7j5bCu-52">
          <mxGeometry relative="1" as="geometry">
            <mxPoint x="882.3199999999999" y="483.65999999999997" as="targetPoint" />
            <mxPoint x="880" y="440" as="sourcePoint" />
          </mxGeometry>
        </mxCell>
        <mxCell id="5wnC8F022_fqOr7j5bCu-54" value="-2" style="ellipse;whiteSpace=wrap;html=1;" vertex="1" parent="5wnC8F022_fqOr7j5bCu-1">
          <mxGeometry x="610" y="500" width="50" height="50" as="geometry" />
        </mxCell>
        <mxCell id="5wnC8F022_fqOr7j5bCu-55" value="-3" style="rounded=0;orthogonalLoop=1;jettySize=auto;html=1;entryX=0.5;entryY=0;entryDx=0;entryDy=0;exitX=0.5;exitY=1;exitDx=0;exitDy=0;" edge="1" parent="5wnC8F022_fqOr7j5bCu-1" source="5wnC8F022_fqOr7j5bCu-58" target="5wnC8F022_fqOr7j5bCu-54">
          <mxGeometry relative="1" as="geometry">
            <mxPoint x="795" y="470" as="targetPoint" />
            <mxPoint x="830" y="440" as="sourcePoint" />
          </mxGeometry>
        </mxCell>
        <mxCell id="5wnC8F022_fqOr7j5bCu-56" value="-1" style="ellipse;whiteSpace=wrap;html=1;" vertex="1" parent="5wnC8F022_fqOr7j5bCu-1">
          <mxGeometry x="520" y="500" width="50" height="50" as="geometry" />
        </mxCell>
        <mxCell id="5wnC8F022_fqOr7j5bCu-57" value="-2" style="rounded=0;orthogonalLoop=1;jettySize=auto;html=1;entryX=0.5;entryY=0;entryDx=0;entryDy=0;exitX=0;exitY=1;exitDx=0;exitDy=0;" edge="1" parent="5wnC8F022_fqOr7j5bCu-1" source="5wnC8F022_fqOr7j5bCu-58" target="5wnC8F022_fqOr7j5bCu-56">
          <mxGeometry relative="1" as="geometry">
            <mxPoint x="742.3199999999999" y="483.65999999999997" as="targetPoint" />
            <mxPoint x="740" y="440" as="sourcePoint" />
          </mxGeometry>
        </mxCell>
        <mxCell id="5wnC8F022_fqOr7j5bCu-58" value="1" style="ellipse;whiteSpace=wrap;html=1;" vertex="1" parent="5wnC8F022_fqOr7j5bCu-1">
          <mxGeometry x="550" y="340" width="50" height="50" as="geometry" />
        </mxCell>
        <mxCell id="5wnC8F022_fqOr7j5bCu-60" value="-5" style="rounded=0;orthogonalLoop=1;jettySize=auto;html=1;entryX=0.5;entryY=0;entryDx=0;entryDy=0;exitX=1;exitY=1;exitDx=0;exitDy=0;" edge="1" parent="5wnC8F022_fqOr7j5bCu-1" source="5wnC8F022_fqOr7j5bCu-65" target="5wnC8F022_fqOr7j5bCu-72">
          <mxGeometry relative="1" as="geometry">
            <mxPoint x="185" y="390" as="targetPoint" />
            <mxPoint x="150" y="330" as="sourcePoint" />
          </mxGeometry>
        </mxCell>
        <mxCell id="5wnC8F022_fqOr7j5bCu-62" value="&lt;font style=&quot;font-size: 13px&quot;&gt;-3&lt;/font&gt;" style="rounded=0;orthogonalLoop=1;jettySize=auto;html=1;entryX=0.5;entryY=0;entryDx=0;entryDy=0;exitX=0.5;exitY=1;exitDx=0;exitDy=0;" edge="1" parent="5wnC8F022_fqOr7j5bCu-1" source="5wnC8F022_fqOr7j5bCu-65" target="5wnC8F022_fqOr7j5bCu-79">
          <mxGeometry relative="1" as="geometry">
            <mxPoint x="45" y="400" as="targetPoint" />
            <mxPoint x="100" y="330" as="sourcePoint" />
          </mxGeometry>
        </mxCell>
        <mxCell id="5wnC8F022_fqOr7j5bCu-64" value="-2" style="rounded=0;orthogonalLoop=1;jettySize=auto;html=1;entryX=0.5;entryY=0;entryDx=0;entryDy=0;exitX=0;exitY=1;exitDx=0;exitDy=0;" edge="1" parent="5wnC8F022_fqOr7j5bCu-1" source="5wnC8F022_fqOr7j5bCu-65" target="5wnC8F022_fqOr7j5bCu-86">
          <mxGeometry relative="1" as="geometry">
            <mxPoint x="-155" y="390" as="targetPoint" />
            <mxPoint x="10" y="330" as="sourcePoint" />
          </mxGeometry>
        </mxCell>
        <mxCell id="5wnC8F022_fqOr7j5bCu-65" value="6" style="ellipse;whiteSpace=wrap;html=1;fillColor=#dae8fc;strokeColor=#6c8ebf;" vertex="1" parent="5wnC8F022_fqOr7j5bCu-1">
          <mxGeometry x="-290" y="200" width="50" height="50" as="geometry" />
        </mxCell>
        <mxCell id="5wnC8F022_fqOr7j5bCu-66" value="-4" style="ellipse;whiteSpace=wrap;html=1;" vertex="1" parent="5wnC8F022_fqOr7j5bCu-1">
          <mxGeometry x="30" y="500" width="50" height="50" as="geometry" />
        </mxCell>
        <mxCell id="5wnC8F022_fqOr7j5bCu-67" value="-5" style="rounded=0;orthogonalLoop=1;jettySize=auto;html=1;entryX=0.5;entryY=0;entryDx=0;entryDy=0;exitX=1;exitY=1;exitDx=0;exitDy=0;" edge="1" parent="5wnC8F022_fqOr7j5bCu-1" source="5wnC8F022_fqOr7j5bCu-72" target="5wnC8F022_fqOr7j5bCu-66">
          <mxGeometry relative="1" as="geometry">
            <mxPoint x="382.31999999999994" y="563.66" as="targetPoint" />
            <mxPoint x="380" y="520" as="sourcePoint" />
          </mxGeometry>
        </mxCell>
        <mxCell id="5wnC8F022_fqOr7j5bCu-68" value="-2" style="ellipse;whiteSpace=wrap;html=1;" vertex="1" parent="5wnC8F022_fqOr7j5bCu-1">
          <mxGeometry x="-40" y="510" width="50" height="50" as="geometry" />
        </mxCell>
        <mxCell id="5wnC8F022_fqOr7j5bCu-69" value="-3" style="rounded=0;orthogonalLoop=1;jettySize=auto;html=1;entryX=0.5;entryY=0;entryDx=0;entryDy=0;exitX=0.5;exitY=1;exitDx=0;exitDy=0;" edge="1" parent="5wnC8F022_fqOr7j5bCu-1" source="5wnC8F022_fqOr7j5bCu-72" target="5wnC8F022_fqOr7j5bCu-68">
          <mxGeometry relative="1" as="geometry">
            <mxPoint x="295" y="550" as="targetPoint" />
            <mxPoint x="330" y="520" as="sourcePoint" />
          </mxGeometry>
        </mxCell>
        <mxCell id="5wnC8F022_fqOr7j5bCu-70" value="-1" style="ellipse;whiteSpace=wrap;html=1;" vertex="1" parent="5wnC8F022_fqOr7j5bCu-1">
          <mxGeometry x="-100" y="510" width="50" height="50" as="geometry" />
        </mxCell>
        <mxCell id="5wnC8F022_fqOr7j5bCu-71" value="-2" style="rounded=0;orthogonalLoop=1;jettySize=auto;html=1;entryX=0.5;entryY=0;entryDx=0;entryDy=0;exitX=0;exitY=1;exitDx=0;exitDy=0;" edge="1" parent="5wnC8F022_fqOr7j5bCu-1" source="5wnC8F022_fqOr7j5bCu-72" target="5wnC8F022_fqOr7j5bCu-70">
          <mxGeometry relative="1" as="geometry">
            <mxPoint x="242.31999999999994" y="563.66" as="targetPoint" />
            <mxPoint x="240" y="520" as="sourcePoint" />
          </mxGeometry>
        </mxCell>
        <mxCell id="5wnC8F022_fqOr7j5bCu-72" value="1" style="ellipse;whiteSpace=wrap;html=1;" vertex="1" parent="5wnC8F022_fqOr7j5bCu-1">
          <mxGeometry x="-150" y="350" width="50" height="50" as="geometry" />
        </mxCell>
        <mxCell id="5wnC8F022_fqOr7j5bCu-73" value="-2" style="ellipse;whiteSpace=wrap;html=1;" vertex="1" parent="5wnC8F022_fqOr7j5bCu-1">
          <mxGeometry x="-170" y="510" width="50" height="50" as="geometry" />
        </mxCell>
        <mxCell id="5wnC8F022_fqOr7j5bCu-74" value="-5" style="rounded=0;orthogonalLoop=1;jettySize=auto;html=1;entryX=0.5;entryY=0;entryDx=0;entryDy=0;exitX=1;exitY=1;exitDx=0;exitDy=0;" edge="1" parent="5wnC8F022_fqOr7j5bCu-1" source="5wnC8F022_fqOr7j5bCu-79" target="5wnC8F022_fqOr7j5bCu-73">
          <mxGeometry relative="1" as="geometry">
            <mxPoint x="72.31999999999994" y="483.65999999999997" as="targetPoint" />
            <mxPoint x="70" y="440" as="sourcePoint" />
          </mxGeometry>
        </mxCell>
        <mxCell id="5wnC8F022_fqOr7j5bCu-75" value="0" style="ellipse;whiteSpace=wrap;html=1;fillColor=#dae8fc;strokeColor=#6c8ebf;" vertex="1" parent="5wnC8F022_fqOr7j5bCu-1">
          <mxGeometry x="-250" y="510" width="50" height="50" as="geometry" />
        </mxCell>
        <mxCell id="5wnC8F022_fqOr7j5bCu-76" value="-3" style="rounded=0;orthogonalLoop=1;jettySize=auto;html=1;entryX=0.5;entryY=0;entryDx=0;entryDy=0;exitX=0.5;exitY=1;exitDx=0;exitDy=0;" edge="1" parent="5wnC8F022_fqOr7j5bCu-1" source="5wnC8F022_fqOr7j5bCu-79" target="5wnC8F022_fqOr7j5bCu-75">
          <mxGeometry relative="1" as="geometry">
            <mxPoint x="-15" y="470" as="targetPoint" />
            <mxPoint x="20" y="440" as="sourcePoint" />
          </mxGeometry>
        </mxCell>
        <mxCell id="5wnC8F022_fqOr7j5bCu-78" value="-2" style="rounded=0;orthogonalLoop=1;jettySize=auto;html=1;entryX=0.5;entryY=0;entryDx=0;entryDy=0;exitX=0;exitY=1;exitDx=0;exitDy=0;" edge="1" parent="5wnC8F022_fqOr7j5bCu-1" source="5wnC8F022_fqOr7j5bCu-79" target="5wnC8F022_fqOr7j5bCu-37">
          <mxGeometry relative="1" as="geometry">
            <mxPoint x="-5" y="560" as="targetPoint" />
            <mxPoint x="-70" y="440" as="sourcePoint" />
          </mxGeometry>
        </mxCell>
        <mxCell id="5wnC8F022_fqOr7j5bCu-79" value="3" style="ellipse;whiteSpace=wrap;html=1;fillColor=#dae8fc;strokeColor=#6c8ebf;" vertex="1" parent="5wnC8F022_fqOr7j5bCu-1">
          <mxGeometry x="-300" y="370" width="50" height="50" as="geometry" />
        </mxCell>
        <mxCell id="5wnC8F022_fqOr7j5bCu-80" value="-1" style="ellipse;whiteSpace=wrap;html=1;" vertex="1" parent="5wnC8F022_fqOr7j5bCu-1">
          <mxGeometry x="-420" y="520" width="50" height="50" as="geometry" />
        </mxCell>
        <mxCell id="5wnC8F022_fqOr7j5bCu-81" value="-5" style="rounded=0;orthogonalLoop=1;jettySize=auto;html=1;entryX=0.5;entryY=0;entryDx=0;entryDy=0;exitX=1;exitY=1;exitDx=0;exitDy=0;" edge="1" parent="5wnC8F022_fqOr7j5bCu-1" source="5wnC8F022_fqOr7j5bCu-86" target="5wnC8F022_fqOr7j5bCu-80">
          <mxGeometry relative="1" as="geometry">
            <mxPoint x="-147.68000000000006" y="593.66" as="targetPoint" />
            <mxPoint x="-150" y="550" as="sourcePoint" />
          </mxGeometry>
        </mxCell>
        <mxCell id="5wnC8F022_fqOr7j5bCu-83" value="-3" style="rounded=0;orthogonalLoop=1;jettySize=auto;html=1;entryX=0.5;entryY=0;entryDx=0;entryDy=0;exitX=0.5;exitY=1;exitDx=0;exitDy=0;" edge="1" parent="5wnC8F022_fqOr7j5bCu-1" source="5wnC8F022_fqOr7j5bCu-86" target="5wnC8F022_fqOr7j5bCu-100">
          <mxGeometry relative="1" as="geometry">
            <mxPoint x="-165" y="560" as="targetPoint" />
            <mxPoint x="-200" y="550" as="sourcePoint" />
          </mxGeometry>
        </mxCell>
        <mxCell id="5wnC8F022_fqOr7j5bCu-85" value="-2" style="rounded=0;orthogonalLoop=1;jettySize=auto;html=1;entryX=0.5;entryY=0;entryDx=0;entryDy=0;exitX=0;exitY=1;exitDx=0;exitDy=0;" edge="1" parent="5wnC8F022_fqOr7j5bCu-1" source="5wnC8F022_fqOr7j5bCu-86" target="5wnC8F022_fqOr7j5bCu-93">
          <mxGeometry relative="1" as="geometry">
            <mxPoint x="-245" y="560" as="targetPoint" />
            <mxPoint x="-290" y="550" as="sourcePoint" />
          </mxGeometry>
        </mxCell>
        <mxCell id="5wnC8F022_fqOr7j5bCu-86" value="4" style="ellipse;whiteSpace=wrap;html=1;" vertex="1" parent="5wnC8F022_fqOr7j5bCu-1">
          <mxGeometry x="-490" y="370" width="50" height="50" as="geometry" />
        </mxCell>
        <mxCell id="5wnC8F022_fqOr7j5bCu-87" value="-3" style="ellipse;whiteSpace=wrap;html=1;" vertex="1" parent="5wnC8F022_fqOr7j5bCu-1">
          <mxGeometry x="-600" y="680" width="50" height="50" as="geometry" />
        </mxCell>
        <mxCell id="5wnC8F022_fqOr7j5bCu-88" value="-5" style="rounded=0;orthogonalLoop=1;jettySize=auto;html=1;entryX=0.5;entryY=0;entryDx=0;entryDy=0;exitX=1;exitY=1;exitDx=0;exitDy=0;" edge="1" parent="5wnC8F022_fqOr7j5bCu-1" source="5wnC8F022_fqOr7j5bCu-93" target="5wnC8F022_fqOr7j5bCu-87">
          <mxGeometry relative="1" as="geometry">
            <mxPoint x="-467.68000000000006" y="608.66" as="targetPoint" />
            <mxPoint x="-470" y="565" as="sourcePoint" />
          </mxGeometry>
        </mxCell>
        <mxCell id="5wnC8F022_fqOr7j5bCu-89" value="-1" style="ellipse;whiteSpace=wrap;html=1;" vertex="1" parent="5wnC8F022_fqOr7j5bCu-1">
          <mxGeometry x="-670" y="680" width="50" height="50" as="geometry" />
        </mxCell>
        <mxCell id="5wnC8F022_fqOr7j5bCu-90" value="-3" style="rounded=0;orthogonalLoop=1;jettySize=auto;html=1;entryX=0.5;entryY=0;entryDx=0;entryDy=0;exitX=0.5;exitY=1;exitDx=0;exitDy=0;" edge="1" parent="5wnC8F022_fqOr7j5bCu-1" source="5wnC8F022_fqOr7j5bCu-93" target="5wnC8F022_fqOr7j5bCu-89">
          <mxGeometry relative="1" as="geometry">
            <mxPoint x="-555" y="595" as="targetPoint" />
            <mxPoint x="-520" y="565" as="sourcePoint" />
          </mxGeometry>
        </mxCell>
        <mxCell id="5wnC8F022_fqOr7j5bCu-91" value="0" style="ellipse;whiteSpace=wrap;html=1;" vertex="1" parent="5wnC8F022_fqOr7j5bCu-1">
          <mxGeometry x="-750" y="680" width="50" height="50" as="geometry" />
        </mxCell>
        <mxCell id="5wnC8F022_fqOr7j5bCu-92" value="-2" style="rounded=0;orthogonalLoop=1;jettySize=auto;html=1;entryX=0.5;entryY=0;entryDx=0;entryDy=0;exitX=0;exitY=1;exitDx=0;exitDy=0;" edge="1" parent="5wnC8F022_fqOr7j5bCu-1" source="5wnC8F022_fqOr7j5bCu-93" target="5wnC8F022_fqOr7j5bCu-91">
          <mxGeometry relative="1" as="geometry">
            <mxPoint x="-607.6800000000001" y="608.66" as="targetPoint" />
            <mxPoint x="-610" y="565" as="sourcePoint" />
          </mxGeometry>
        </mxCell>
        <mxCell id="5wnC8F022_fqOr7j5bCu-93" value="2" style="ellipse;whiteSpace=wrap;html=1;" vertex="1" parent="5wnC8F022_fqOr7j5bCu-1">
          <mxGeometry x="-640" y="515" width="50" height="50" as="geometry" />
        </mxCell>
        <mxCell id="5wnC8F022_fqOr7j5bCu-94" value="-4" style="ellipse;whiteSpace=wrap;html=1;" vertex="1" parent="5wnC8F022_fqOr7j5bCu-1">
          <mxGeometry x="-400" y="680" width="50" height="50" as="geometry" />
        </mxCell>
        <mxCell id="5wnC8F022_fqOr7j5bCu-95" value="-5" style="rounded=0;orthogonalLoop=1;jettySize=auto;html=1;entryX=0.5;entryY=0;entryDx=0;entryDy=0;exitX=1;exitY=1;exitDx=0;exitDy=0;" edge="1" parent="5wnC8F022_fqOr7j5bCu-1" source="5wnC8F022_fqOr7j5bCu-100" target="5wnC8F022_fqOr7j5bCu-94">
          <mxGeometry relative="1" as="geometry">
            <mxPoint x="-307.68000000000006" y="713.66" as="targetPoint" />
            <mxPoint x="-310" y="670" as="sourcePoint" />
          </mxGeometry>
        </mxCell>
        <mxCell id="5wnC8F022_fqOr7j5bCu-96" value="-2" style="ellipse;whiteSpace=wrap;html=1;" vertex="1" parent="5wnC8F022_fqOr7j5bCu-1">
          <mxGeometry x="-463" y="680" width="50" height="50" as="geometry" />
        </mxCell>
        <mxCell id="5wnC8F022_fqOr7j5bCu-97" value="-3" style="rounded=0;orthogonalLoop=1;jettySize=auto;html=1;entryX=0.5;entryY=0;entryDx=0;entryDy=0;exitX=0.5;exitY=1;exitDx=0;exitDy=0;" edge="1" parent="5wnC8F022_fqOr7j5bCu-1" source="5wnC8F022_fqOr7j5bCu-100" target="5wnC8F022_fqOr7j5bCu-96">
          <mxGeometry relative="1" as="geometry">
            <mxPoint x="-395" y="700" as="targetPoint" />
            <mxPoint x="-360" y="670" as="sourcePoint" />
          </mxGeometry>
        </mxCell>
        <mxCell id="5wnC8F022_fqOr7j5bCu-98" value="-1" style="ellipse;whiteSpace=wrap;html=1;" vertex="1" parent="5wnC8F022_fqOr7j5bCu-1">
          <mxGeometry x="-530" y="680" width="50" height="50" as="geometry" />
        </mxCell>
        <mxCell id="5wnC8F022_fqOr7j5bCu-99" value="-5" style="rounded=0;orthogonalLoop=1;jettySize=auto;html=1;entryX=0.5;entryY=0;entryDx=0;entryDy=0;exitX=0;exitY=1;exitDx=0;exitDy=0;" edge="1" parent="5wnC8F022_fqOr7j5bCu-1" source="5wnC8F022_fqOr7j5bCu-100" target="5wnC8F022_fqOr7j5bCu-98">
          <mxGeometry relative="1" as="geometry">
            <mxPoint x="-447.68000000000006" y="713.66" as="targetPoint" />
            <mxPoint x="-450" y="670" as="sourcePoint" />
          </mxGeometry>
        </mxCell>
        <mxCell id="5wnC8F022_fqOr7j5bCu-100" value="1" style="ellipse;whiteSpace=wrap;html=1;" vertex="1" parent="5wnC8F022_fqOr7j5bCu-1">
          <mxGeometry x="-510" y="515" width="50" height="50" as="geometry" />
        </mxCell>
        <mxCell id="5wnC8F022_fqOr7j5bCu-101" value="-3" style="ellipse;whiteSpace=wrap;html=1;" vertex="1" parent="5wnC8F022_fqOr7j5bCu-1">
          <mxGeometry x="420" y="500" width="50" height="50" as="geometry" />
        </mxCell>
        <mxCell id="5wnC8F022_fqOr7j5bCu-102" value="-5" style="rounded=0;orthogonalLoop=1;jettySize=auto;html=1;entryX=0.5;entryY=0;entryDx=0;entryDy=0;exitX=1;exitY=1;exitDx=0;exitDy=0;" edge="1" parent="5wnC8F022_fqOr7j5bCu-1" source="5wnC8F022_fqOr7j5bCu-107" target="5wnC8F022_fqOr7j5bCu-101">
          <mxGeometry relative="1" as="geometry">
            <mxPoint x="892.3199999999999" y="643.66" as="targetPoint" />
            <mxPoint x="890" y="600" as="sourcePoint" />
          </mxGeometry>
        </mxCell>
        <mxCell id="5wnC8F022_fqOr7j5bCu-103" value="-1" style="ellipse;whiteSpace=wrap;html=1;" vertex="1" parent="5wnC8F022_fqOr7j5bCu-1">
          <mxGeometry x="360" y="500" width="50" height="50" as="geometry" />
        </mxCell>
        <mxCell id="5wnC8F022_fqOr7j5bCu-104" value="-3" style="rounded=0;orthogonalLoop=1;jettySize=auto;html=1;entryX=0.5;entryY=0;entryDx=0;entryDy=0;exitX=0.5;exitY=1;exitDx=0;exitDy=0;" edge="1" parent="5wnC8F022_fqOr7j5bCu-1" source="5wnC8F022_fqOr7j5bCu-107" target="5wnC8F022_fqOr7j5bCu-103">
          <mxGeometry relative="1" as="geometry">
            <mxPoint x="805" y="630" as="targetPoint" />
            <mxPoint x="840" y="600" as="sourcePoint" />
          </mxGeometry>
        </mxCell>
        <mxCell id="5wnC8F022_fqOr7j5bCu-105" value="0" style="ellipse;whiteSpace=wrap;html=1;" vertex="1" parent="5wnC8F022_fqOr7j5bCu-1">
          <mxGeometry x="300" y="500" width="50" height="50" as="geometry" />
        </mxCell>
        <mxCell id="5wnC8F022_fqOr7j5bCu-106" value="-2" style="rounded=0;orthogonalLoop=1;jettySize=auto;html=1;entryX=0.5;entryY=0;entryDx=0;entryDy=0;exitX=0;exitY=1;exitDx=0;exitDy=0;" edge="1" parent="5wnC8F022_fqOr7j5bCu-1" source="5wnC8F022_fqOr7j5bCu-107" target="5wnC8F022_fqOr7j5bCu-105">
          <mxGeometry relative="1" as="geometry">
            <mxPoint x="752.3199999999999" y="643.66" as="targetPoint" />
            <mxPoint x="750" y="600" as="sourcePoint" />
          </mxGeometry>
        </mxCell>
        <mxCell id="5wnC8F022_fqOr7j5bCu-107" value="2" style="ellipse;whiteSpace=wrap;html=1;" vertex="1" parent="5wnC8F022_fqOr7j5bCu-1">
          <mxGeometry x="340" y="350" width="50" height="50" as="geometry" />
        </mxCell>
        <mxCell id="5wnC8F022_fqOr7j5bCu-108" value="-4" style="ellipse;whiteSpace=wrap;html=1;" vertex="1" parent="5wnC8F022_fqOr7j5bCu-1">
          <mxGeometry x="160" y="660" width="50" height="50" as="geometry" />
        </mxCell>
        <mxCell id="5wnC8F022_fqOr7j5bCu-109" value="-5" style="rounded=0;orthogonalLoop=1;jettySize=auto;html=1;entryX=0.5;entryY=0;entryDx=0;entryDy=0;exitX=1;exitY=1;exitDx=0;exitDy=0;" edge="1" parent="5wnC8F022_fqOr7j5bCu-1" source="5wnC8F022_fqOr7j5bCu-114" target="5wnC8F022_fqOr7j5bCu-108">
          <mxGeometry relative="1" as="geometry">
            <mxPoint x="522.3199999999999" y="873.66" as="targetPoint" />
            <mxPoint x="520" y="830" as="sourcePoint" />
          </mxGeometry>
        </mxCell>
        <mxCell id="5wnC8F022_fqOr7j5bCu-110" value="-2" style="ellipse;whiteSpace=wrap;html=1;" vertex="1" parent="5wnC8F022_fqOr7j5bCu-1">
          <mxGeometry x="100" y="670" width="50" height="50" as="geometry" />
        </mxCell>
        <mxCell id="5wnC8F022_fqOr7j5bCu-111" value="-3" style="rounded=0;orthogonalLoop=1;jettySize=auto;html=1;entryX=0.5;entryY=0;entryDx=0;entryDy=0;exitX=0.5;exitY=1;exitDx=0;exitDy=0;" edge="1" parent="5wnC8F022_fqOr7j5bCu-1" source="5wnC8F022_fqOr7j5bCu-114" target="5wnC8F022_fqOr7j5bCu-110">
          <mxGeometry relative="1" as="geometry">
            <mxPoint x="435" y="860" as="targetPoint" />
            <mxPoint x="470" y="830" as="sourcePoint" />
          </mxGeometry>
        </mxCell>
        <mxCell id="5wnC8F022_fqOr7j5bCu-112" value="-1" style="ellipse;whiteSpace=wrap;html=1;" vertex="1" parent="5wnC8F022_fqOr7j5bCu-1">
          <mxGeometry x="30" y="660" width="50" height="50" as="geometry" />
        </mxCell>
        <mxCell id="5wnC8F022_fqOr7j5bCu-113" value="-2" style="rounded=0;orthogonalLoop=1;jettySize=auto;html=1;entryX=0.5;entryY=0;entryDx=0;entryDy=0;exitX=0;exitY=1;exitDx=0;exitDy=0;" edge="1" parent="5wnC8F022_fqOr7j5bCu-1" source="5wnC8F022_fqOr7j5bCu-114" target="5wnC8F022_fqOr7j5bCu-112">
          <mxGeometry relative="1" as="geometry">
            <mxPoint x="382.31999999999994" y="873.66" as="targetPoint" />
            <mxPoint x="380" y="830" as="sourcePoint" />
          </mxGeometry>
        </mxCell>
        <mxCell id="5wnC8F022_fqOr7j5bCu-114" value="1" style="ellipse;whiteSpace=wrap;html=1;" vertex="1" parent="5wnC8F022_fqOr7j5bCu-1">
          <mxGeometry x="110" y="500" width="50" height="50" as="geometry" />
        </mxCell>
      </root>
    </mxGraphModel>
  </diagram>
</mxfile>
